<svg viewBox="0 0 720 450" xmlns="http://www.w3.org/2000/svg" role="img" aria-label="NVDA hourly candles for June 23-24 2026 with two bracket trades: a stop-out loss and a take-profit win">
<title>NVDA last week — two 1.5:1 bracket trades</title>
<line x1="50" y1="387.2" x2="706" y2="387.2" stroke="var(--border)" stroke-width="1"/>
<text x="44" y="391.2" text-anchor="end" font-size="11" fill="var(--text-muted)">196</text>
<line x1="50" y1="320.1" x2="706" y2="320.1" stroke="var(--border)" stroke-width="1"/>
<text x="44" y="324.1" text-anchor="end" font-size="11" fill="var(--text-muted)">198</text>
<line x1="50" y1="253.0" x2="706" y2="253.0" stroke="var(--border)" stroke-width="1"/>
<text x="44" y="257.0" text-anchor="end" font-size="11" fill="var(--text-muted)">200</text>
<line x1="50" y1="185.8" x2="706" y2="185.8" stroke="var(--border)" stroke-width="1"/>
<text x="44" y="189.8" text-anchor="end" font-size="11" fill="var(--text-muted)">202</text>
<line x1="50" y1="118.7" x2="706" y2="118.7" stroke="var(--border)" stroke-width="1"/>
<text x="44" y="122.7" text-anchor="end" font-size="11" fill="var(--text-muted)">204</text>
<line x1="50" y1="51.6" x2="706" y2="51.6" stroke="var(--border)" stroke-width="1"/>
<text x="44" y="55.6" text-anchor="end" font-size="11" fill="var(--text-muted)">206</text>
<line x1="378.0" y1="18" x2="378.0" y2="404" stroke="var(--border)" stroke-width="1" stroke-dasharray="2 3"/>
<text x="214" y="434" text-anchor="middle" font-size="12" fill="var(--text-secondary)">Mon Jun 23</text>
<text x="542" y="434" text-anchor="middle" font-size="12" fill="var(--text-secondary)">Tue Jun 24</text>
<line x1="60.2" y1="42.8" x2="60.2" y2="197.2" stroke="#1baf7a" stroke-width="1.2"/>
<rect x="54.6" y="170.7" width="11.3" height="4.4" fill="#1baf7a"/>
<line x1="80.8" y1="155.6" x2="80.8" y2="181.8" stroke="#e34948" stroke-width="1.2"/>
<rect x="75.1" y="169.0" width="11.3" height="3.4" fill="#e34948"/>
<line x1="101.2" y1="160.3" x2="101.2" y2="190.9" stroke="#1baf7a" stroke-width="1.2"/>
<rect x="95.6" y="164.0" width="11.3" height="10.1" fill="#1baf7a"/>
<line x1="121.8" y1="113.7" x2="121.8" y2="178.8" stroke="#1baf7a" stroke-width="1.2"/>
<rect x="116.1" y="122.7" width="11.3" height="42.0" fill="#1baf7a"/>
<line x1="142.2" y1="118.7" x2="142.2" y2="165.7" stroke="#e34948" stroke-width="1.2"/>
<rect x="136.6" y="122.7" width="11.3" height="29.2" fill="#e34948"/>
<line x1="162.8" y1="126.4" x2="162.8" y2="251.6" stroke="#1baf7a" stroke-width="1.2"/>
<rect x="157.1" y="138.5" width="11.3" height="12.8" fill="#1baf7a"/>
<line x1="183.2" y1="132.8" x2="183.2" y2="189.2" stroke="#e34948" stroke-width="1.2"/>
<rect x="177.6" y="139.8" width="11.3" height="37.9" fill="#e34948"/>
<line x1="203.8" y1="169.4" x2="203.8" y2="238.5" stroke="#e34948" stroke-width="1.2"/>
<rect x="198.1" y="177.8" width="11.3" height="13.1" fill="#e34948"/>
<line x1="224.2" y1="153.6" x2="224.2" y2="192.5" stroke="#1baf7a" stroke-width="1.2"/>
<rect x="218.6" y="175.4" width="11.3" height="16.1" fill="#1baf7a"/>
<line x1="244.8" y1="159.0" x2="244.8" y2="198.9" stroke="#e34948" stroke-width="1.2"/>
<rect x="239.1" y="175.1" width="11.3" height="23.8" fill="#e34948"/>
<line x1="265.2" y1="185.5" x2="265.2" y2="242.9" stroke="#e34948" stroke-width="1.2"/>
<rect x="259.6" y="198.6" width="11.3" height="33.2" fill="#e34948"/>
<line x1="285.8" y1="195.2" x2="285.8" y2="253.0" stroke="#e34948" stroke-width="1.2"/>
<rect x="280.1" y="232.1" width="11.3" height="20.5" fill="#e34948"/>
<line x1="306.2" y1="225.8" x2="306.2" y2="253.0" stroke="#1baf7a" stroke-width="1.2"/>
<rect x="300.6" y="236.8" width="11.3" height="11.4" fill="#1baf7a"/>
<line x1="326.8" y1="216.0" x2="326.8" y2="237.5" stroke="#1baf7a" stroke-width="1.2"/>
<rect x="321.1" y="220.1" width="11.3" height="17.5" fill="#1baf7a"/>
<line x1="347.2" y1="213.7" x2="347.2" y2="239.5" stroke="#e34948" stroke-width="1.2"/>
<rect x="341.6" y="221.7" width="11.3" height="13.4" fill="#e34948"/>
<line x1="367.8" y1="222.7" x2="367.8" y2="246.2" stroke="#1baf7a" stroke-width="1.2"/>
<rect x="362.1" y="223.1" width="11.3" height="11.1" fill="#1baf7a"/>
<line x1="388.2" y1="192.5" x2="388.2" y2="232.5" stroke="#1baf7a" stroke-width="1.2"/>
<rect x="382.6" y="211.0" width="11.3" height="8.4" fill="#1baf7a"/>
<line x1="408.8" y1="197.2" x2="408.8" y2="213.0" stroke="#1baf7a" stroke-width="1.2"/>
<rect x="403.1" y="204.3" width="11.3" height="5.0" fill="#1baf7a"/>
<line x1="429.2" y1="194.9" x2="429.2" y2="209.7" stroke="#1baf7a" stroke-width="1.2"/>
<rect x="423.6" y="206.0" width="11.3" height="3.4" fill="#1baf7a"/>
<line x1="449.8" y1="195.9" x2="449.8" y2="224.4" stroke="#1baf7a" stroke-width="1.2"/>
<rect x="444.1" y="202.6" width="11.3" height="5.4" fill="#1baf7a"/>
<line x1="470.2" y1="197.6" x2="470.2" y2="223.4" stroke="#e34948" stroke-width="1.2"/>
<rect x="464.6" y="202.6" width="11.3" height="18.1" fill="#e34948"/>
<line x1="490.8" y1="196.9" x2="490.8" y2="286.5" stroke="#e34948" stroke-width="1.2"/>
<rect x="485.1" y="219.4" width="11.3" height="25.2" fill="#e34948"/>
<line x1="511.2" y1="209.3" x2="511.2" y2="299.9" stroke="#1baf7a" stroke-width="1.2"/>
<rect x="505.6" y="213.0" width="11.3" height="31.6" fill="#1baf7a"/>
<line x1="531.8" y1="202.3" x2="531.8" y2="241.5" stroke="#e34948" stroke-width="1.2"/>
<rect x="526.1" y="212.3" width="11.3" height="14.1" fill="#e34948"/>
<line x1="552.2" y1="218.7" x2="552.2" y2="282.2" stroke="#e34948" stroke-width="1.2"/>
<rect x="546.6" y="226.8" width="11.3" height="51.0" fill="#e34948"/>
<line x1="572.8" y1="267.7" x2="572.8" y2="340.6" stroke="#e34948" stroke-width="1.2"/>
<rect x="567.1" y="278.5" width="11.3" height="59.7" fill="#e34948"/>
<line x1="593.2" y1="294.2" x2="593.2" y2="352.3" stroke="#e34948" stroke-width="1.2"/>
<rect x="587.6" y="337.9" width="11.3" height="8.7" fill="#e34948"/>
<line x1="613.8" y1="278.8" x2="613.8" y2="367.7" stroke="#1baf7a" stroke-width="1.2"/>
<rect x="608.1" y="287.9" width="11.3" height="59.1" fill="#1baf7a"/>
<line x1="634.2" y1="211.0" x2="634.2" y2="316.4" stroke="#1baf7a" stroke-width="1.2"/>
<rect x="628.6" y="240.5" width="11.3" height="45.6" fill="#1baf7a"/>
<line x1="654.8" y1="236.2" x2="654.8" y2="256.3" stroke="#1baf7a" stroke-width="1.2"/>
<rect x="649.1" y="236.2" width="11.3" height="1.7" fill="#1baf7a"/>
<line x1="675.2" y1="224.8" x2="675.2" y2="261.3" stroke="#e34948" stroke-width="1.2"/>
<rect x="669.6" y="236.2" width="11.3" height="21.8" fill="#e34948"/>
<line x1="695.8" y1="223.4" x2="695.8" y2="259.7" stroke="#1baf7a" stroke-width="1.2"/>
<rect x="690.1" y="230.8" width="11.3" height="27.2" fill="#1baf7a"/>
<line x1="129.9" y1="77.7" x2="175.1" y2="77.7" stroke="#1baf7a" stroke-width="1.4" stroke-dasharray="5 3"/>
<line x1="129.9" y1="201.3" x2="175.1" y2="201.3" stroke="#e34948" stroke-width="1.4" stroke-dasharray="5 3"/>
<circle cx="162.8" cy="201.3" r="5" fill="#e34948"/>
<circle cx="142.2" cy="151.9" r="8" fill="#2a78d6"/>
<text x="142.2" y="155.9" text-anchor="middle" font-size="11" fill="#ffffff" font-weight="500">1</text>
<line x1="560.5" y1="265.4" x2="646.5" y2="265.4" stroke="#1baf7a" stroke-width="1.4" stroke-dasharray="5 3"/>
<line x1="560.5" y1="386.9" x2="646.5" y2="386.9" stroke="#e34948" stroke-width="1.4" stroke-dasharray="5 3"/>
<circle cx="634.2" cy="265.4" r="5" fill="#1baf7a"/>
<circle cx="572.8" cy="338.2" r="8" fill="#2a78d6"/>
<text x="572.8" y="342.2" text-anchor="middle" font-size="11" fill="#ffffff" font-weight="500">2</text>
<rect x="58" y="298" width="200" height="82" rx="6" fill="var(--surface-2)" stroke="#e34948" stroke-width="1.5"/>
<text x="69" y="318" font-size="12" fill="#e34948" font-weight="500">1   stopped out</text>
<text x="69" y="332" font-size="12" fill="var(--text-secondary)" font-weight="400">buy 203.01</text>
<text x="69" y="346" font-size="12" fill="#1baf7a" font-weight="400">target 205.22 (not hit)</text>
<text x="69" y="360" font-size="12" fill="#e34948" font-weight="400">stop 201.54 hit next bar</text>
<text x="69" y="374" font-size="12" fill="#e34948" font-weight="500">result:  -1.0R  (-$1.47)</text>
<rect x="450" y="56" width="202" height="82" rx="6" fill="var(--surface-2)" stroke="#1baf7a" stroke-width="1.5"/>
<text x="461" y="76" font-size="12" fill="#1baf7a" font-weight="500">2   took profit</text>
<text x="461" y="90" font-size="12" fill="var(--text-secondary)" font-weight="400">buy 197.46</text>
<text x="461" y="104" font-size="12" fill="#1baf7a" font-weight="400">target 199.63 hit</text>
<text x="461" y="118" font-size="12" fill="#e34948" font-weight="400">stop 196.01 (not hit)</text>
<text x="461" y="132" font-size="12" fill="#1baf7a" font-weight="500">result:  +1.5R  (+$2.21)</text>
</svg>