<svg viewBox="0 0 720 446" xmlns="http://www.w3.org/2000/svg" role="img" aria-label="NVDA 30-minute candles on Mon June 22. Bought at 209.40, target hit at 210.83 by 12:30 for a +20.40 dollar gain on a 2994 dollar position.">
<title>NVDA v3 trade — bought 209.40, sold at target 210.83</title>
<line x1="52" y1="341.5" x2="706" y2="341.5" stroke="var(--border)" stroke-width="1"/>
<text x="46" y="345.5" text-anchor="end" font-size="11" fill="var(--text-muted)">209</text>
<line x1="52" y1="283.1" x2="706" y2="283.1" stroke="var(--border)" stroke-width="1"/>
<text x="46" y="287.1" text-anchor="end" font-size="11" fill="var(--text-muted)">210</text>
<line x1="52" y1="224.6" x2="706" y2="224.6" stroke="var(--border)" stroke-width="1"/>
<text x="46" y="228.6" text-anchor="end" font-size="11" fill="var(--text-muted)">211</text>
<line x1="52" y1="166.2" x2="706" y2="166.2" stroke="var(--border)" stroke-width="1"/>
<text x="46" y="170.2" text-anchor="end" font-size="11" fill="var(--text-muted)">212</text>
<line x1="52" y1="107.7" x2="706" y2="107.7" stroke="var(--border)" stroke-width="1"/>
<text x="46" y="111.7" text-anchor="end" font-size="11" fill="var(--text-muted)">213</text>
<line x1="52" y1="49.2" x2="706" y2="49.2" stroke="var(--border)" stroke-width="1"/>
<text x="46" y="53.2" text-anchor="end" font-size="11" fill="var(--text-muted)">214</text>
<text x="360" y="432" text-anchor="middle" font-size="12" fill="var(--text-secondary)">Mon Jun 22 (UTC, 30-min candles)</text>
<line x1="77.2" y1="277.2" x2="77.2" y2="382.5" stroke="#e34948" stroke-width="1.3"/>
<rect x="64.6" y="286.0" width="25.2" height="37.4" fill="#e34948"/>
<line x1="127.5" y1="291.8" x2="127.5" y2="329.8" stroke="#1baf7a" stroke-width="1.3"/>
<rect x="114.9" y="308.2" width="25.2" height="17.5" fill="#1baf7a"/>
<line x1="177.8" y1="301.8" x2="177.8" y2="324.0" stroke="#e34948" stroke-width="1.3"/>
<rect x="165.2" y="311.7" width="25.2" height="6.4" fill="#e34948"/>
<line x1="228.1" y1="314.6" x2="228.1" y2="332.8" stroke="#e34948" stroke-width="1.3"/>
<rect x="215.5" y="317.6" width="25.2" height="6.4" fill="#e34948"/>
<line x1="278.4" y1="284.2" x2="278.4" y2="325.8" stroke="#1baf7a" stroke-width="1.3"/>
<rect x="265.8" y="306.5" width="25.2" height="19.3" fill="#1baf7a"/>
<line x1="328.7" y1="306.5" x2="328.7" y2="324.0" stroke="#e34948" stroke-width="1.3"/>
<rect x="316.1" y="308.8" width="25.2" height="1.2" fill="#e34948"/>
<line x1="379.0" y1="244.5" x2="379.0" y2="311.1" stroke="#1baf7a" stroke-width="1.3"/>
<rect x="366.4" y="274.9" width="25.2" height="32.7" fill="#1baf7a"/>
<line x1="429.3" y1="261.4" x2="429.3" y2="283.7" stroke="#e34948" stroke-width="1.3"/>
<rect x="416.7" y="274.3" width="25.2" height="5.8" fill="#e34948"/>
<line x1="479.6" y1="265.0" x2="479.6" y2="290.7" stroke="#1baf7a" stroke-width="1.3"/>
<rect x="467.0" y="265.5" width="25.2" height="10.5" fill="#1baf7a"/>
<line x1="529.9" y1="224.6" x2="529.9" y2="270.2" stroke="#1baf7a" stroke-width="1.3"/>
<rect x="517.3" y="239.8" width="25.2" height="30.4" fill="#1baf7a"/>
<line x1="580.2" y1="197.1" x2="580.2" y2="246.8" stroke="#1baf7a" stroke-width="1.3"/>
<rect x="567.7" y="198.9" width="25.2" height="38.6" fill="#1baf7a"/>
<line x1="630.5" y1="49.8" x2="630.5" y2="236.9" stroke="#1baf7a" stroke-width="1.3"/>
<rect x="618.0" y="103.0" width="25.2" height="95.9" fill="#1baf7a"/>
<line x1="680.8" y1="49.8" x2="680.8" y2="218.2" stroke="#e34948" stroke-width="1.3"/>
<rect x="668.3" y="103.0" width="25.2" height="115.2" fill="#e34948"/>
<line x1="152.6" y1="234.6" x2="555.1" y2="234.6" stroke="#1baf7a" stroke-width="1.5" stroke-dasharray="5 3"/>
<text x="559.1" y="230.6" font-size="11" fill="#1baf7a">target 210.83 — sell here</text>
<line x1="152.6" y1="373.7" x2="555.1" y2="373.7" stroke="#e34948" stroke-width="1.5" stroke-dasharray="5 3"/>
<text x="559.1" y="386.7" font-size="11" fill="#e34948">stop 208.45</text>
<circle cx="177.8" cy="318.2" r="6" fill="#2a78d6"/>
<text x="167.8" y="322.2" text-anchor="end" font-size="11" fill="#2a78d6" font-weight="500">BUY 209.4</text>
<circle cx="529.9" cy="234.6" r="6" fill="#1baf7a"/>
<text x="529.9" y="222.6" text-anchor="middle" font-size="11" fill="#1baf7a" font-weight="500">SOLD +$20.40</text>
<rect x="60" y="34" width="266" height="86" rx="8" fill="var(--surface-2)" stroke="var(--border)" stroke-width="1"/>
<text x="72" y="56" font-size="12.5" fill="var(--text-primary)" font-weight="500">NVDA  —  v3 (30-min, 1.5:1)</text>
<text x="72" y="75" font-size="12.5" fill="var(--text-secondary)" font-weight="400">bought 14.3 shares = $2,994  (30% of acct)</text>
<text x="72" y="94" font-size="12.5" fill="var(--text-secondary)" font-weight="400">risk if stopped: -$13.60   reward at target: +$20.40</text>
<text x="72" y="113" font-size="12.5" fill="#1baf7a" font-weight="500">result: TARGET HIT  ->  +$20.40</text>
</svg>