<svg viewBox="0 0 660 414" xmlns="http://www.w3.org/2000/svg" role="img" aria-label="Heatmap of total return by candle timeframe and target-to-stop ratio. Profitable band runs from 60-min tight ratios through 30-min all ratios to 15-min wide ratios; 5-min loses everywhere.">
<title>timeframe x target:stop sweep — total return%</title>
<text x="147" y="54" text-anchor="middle" font-size="13" fill="var(--text-secondary)">60-min</text>
<text x="285" y="54" text-anchor="middle" font-size="13" fill="var(--text-secondary)">30-min</text>
<text x="423" y="54" text-anchor="middle" font-size="13" fill="var(--text-secondary)">15-min</text>
<text x="561" y="54" text-anchor="middle" font-size="13" fill="var(--text-secondary)">5-min</text>
<text x="68" y="54" text-anchor="end" font-size="12" fill="var(--text-muted)">tgt:stop</text>
<text x="66" y="103" text-anchor="end" font-size="13" fill="var(--text-primary)">1:1</text>
<rect x="80" y="72" width="134" height="52" rx="5" fill="rgb(175,227,208)"/>
<text x="147" y="97" text-anchor="middle" font-size="16" fill="#14110e" font-weight="500">+52%</text>
<text x="147" y="113" text-anchor="middle" font-size="11" fill="#3a3632">+2.7 bps/trade</text>
<rect x="218" y="72" width="134" height="52" rx="5" fill="rgb(156,220,198)"/>
<text x="285" y="97" text-anchor="middle" font-size="16" fill="#14110e" font-weight="500">+70%</text>
<text x="285" y="113" text-anchor="middle" font-size="11" fill="#3a3632">+2.2 bps/trade</text>
<rect x="356" y="72" width="134" height="52" rx="5" fill="rgb(248,206,206)"/>
<text x="423" y="97" text-anchor="middle" font-size="16" fill="#14110e" font-weight="500">-33%</text>
<text x="423" y="113" text-anchor="middle" font-size="11" fill="#3a3632">-0.5 bps/trade</text>
<rect x="494" y="72" width="134" height="52" rx="5" fill="rgb(235,128,127)"/>
<text x="561" y="97" text-anchor="middle" font-size="16" fill="#14110e" font-weight="500">-373%</text>
<text x="561" y="113" text-anchor="middle" font-size="11" fill="#3a3632">-1.4 bps/trade</text>
<text x="66" y="159" text-anchor="end" font-size="13" fill="var(--text-primary)">1.5:1</text>
<rect x="80" y="128" width="134" height="52" rx="5" fill="rgb(166,224,203)"/>
<text x="147" y="153" text-anchor="middle" font-size="16" fill="#14110e" font-weight="500">+61%</text>
<text x="147" y="169" text-anchor="middle" font-size="11" fill="#3a3632">+3.3 bps/trade</text>
<rect x="218" y="128" width="134" height="52" rx="5" fill="rgb(112,205,171)"/>
<text x="285" y="153" text-anchor="middle" font-size="16" fill="#14110e" font-weight="500">+114%</text>
<text x="285" y="169" text-anchor="middle" font-size="11" fill="#3a3632">+3.7 bps/trade</text>
<rect x="356" y="128" width="134" height="52" rx="5" fill="rgb(206,238,227)"/>
<text x="423" y="153" text-anchor="middle" font-size="16" fill="#14110e" font-weight="500">+21%</text>
<text x="423" y="169" text-anchor="middle" font-size="11" fill="#3a3632">+0.4 bps/trade</text>
<rect x="494" y="128" width="134" height="52" rx="5" fill="rgb(235,128,127)"/>
<text x="561" y="153" text-anchor="middle" font-size="16" fill="#14110e" font-weight="500">-263%</text>
<text x="561" y="169" text-anchor="middle" font-size="11" fill="#3a3632">-1.1 bps/trade</text>
<text x="66" y="215" text-anchor="end" font-size="13" fill="var(--text-primary)">2:1</text>
<rect x="80" y="184" width="134" height="52" rx="5" fill="rgb(225,244,237)"/>
<text x="147" y="209" text-anchor="middle" font-size="16" fill="#14110e" font-weight="500">+3%</text>
<text x="147" y="225" text-anchor="middle" font-size="11" fill="#3a3632">+0.2 bps/trade</text>
<rect x="218" y="184" width="134" height="52" rx="5" fill="rgb(141,215,189)"/>
<text x="285" y="209" text-anchor="middle" font-size="16" fill="#14110e" font-weight="500">+85%</text>
<text x="285" y="225" text-anchor="middle" font-size="11" fill="#3a3632">+2.7 bps/trade</text>
<rect x="356" y="184" width="134" height="52" rx="5" fill="rgb(195,234,220)"/>
<text x="423" y="209" text-anchor="middle" font-size="16" fill="#14110e" font-weight="500">+32%</text>
<text x="423" y="225" text-anchor="middle" font-size="11" fill="#3a3632">+0.6 bps/trade</text>
<rect x="494" y="184" width="134" height="52" rx="5" fill="rgb(235,128,127)"/>
<text x="561" y="209" text-anchor="middle" font-size="16" fill="#14110e" font-weight="500">-250%</text>
<text x="561" y="225" text-anchor="middle" font-size="11" fill="#3a3632">-1.2 bps/trade</text>
<text x="66" y="271" text-anchor="end" font-size="13" fill="var(--text-primary)">3:1</text>
<rect x="80" y="240" width="134" height="52" rx="5" fill="rgb(245,187,187)"/>
<text x="147" y="265" text-anchor="middle" font-size="16" fill="#14110e" font-weight="500">-57%</text>
<text x="147" y="281" text-anchor="middle" font-size="11" fill="#3a3632">-3.7 bps/trade</text>
<rect x="218" y="240" width="134" height="52" rx="5" fill="rgb(125,209,179)"/>
<text x="285" y="265" text-anchor="middle" font-size="16" fill="#14110e" font-weight="500">+101%</text>
<text x="285" y="281" text-anchor="middle" font-size="11" fill="#3a3632">+3.2 bps/trade</text>
<rect x="356" y="240" width="134" height="52" rx="5" fill="rgb(112,205,171)"/>
<text x="423" y="265" text-anchor="middle" font-size="16" fill="#14110e" font-weight="500">+114%</text>
<text x="423" y="281" text-anchor="middle" font-size="11" fill="#3a3632">+1.9 bps/trade</text>
<rect x="494" y="240" width="134" height="52" rx="5" fill="rgb(235,128,127)"/>
<text x="561" y="265" text-anchor="middle" font-size="16" fill="#14110e" font-weight="500">-200%</text>
<text x="561" y="281" text-anchor="middle" font-size="11" fill="#3a3632">-1.0 bps/trade</text>
<text x="66" y="327" text-anchor="end" font-size="13" fill="var(--text-primary)">4:1</text>
<rect x="80" y="296" width="134" height="52" rx="5" fill="rgb(247,203,203)"/>
<text x="147" y="321" text-anchor="middle" font-size="16" fill="#14110e" font-weight="500">-37%</text>
<text x="147" y="337" text-anchor="middle" font-size="11" fill="#3a3632">-2.6 bps/trade</text>
<rect x="218" y="296" width="134" height="52" rx="5" fill="rgb(163,223,201)"/>
<text x="285" y="321" text-anchor="middle" font-size="16" fill="#14110e" font-weight="500">+64%</text>
<text x="285" y="337" text-anchor="middle" font-size="11" fill="#3a3632">+2.0 bps/trade</text>
<rect x="356" y="296" width="134" height="52" rx="5" fill="rgb(96,199,162)"/>
<text x="423" y="321" text-anchor="middle" font-size="16" fill="#14110e" font-weight="500">+129%</text>
<text x="423" y="337" text-anchor="middle" font-size="11" fill="#3a3632">+2.1 bps/trade</text>
<rect x="494" y="296" width="134" height="52" rx="5" fill="rgb(239,152,151)"/>
<text x="561" y="321" text-anchor="middle" font-size="16" fill="#14110e" font-weight="500">-100%</text>
<text x="561" y="337" text-anchor="middle" font-size="11" fill="#3a3632">-0.6 bps/trade</text>
<rect x="217" y="127" width="136" height="54" rx="6" fill="none" stroke="#0f6e56" stroke-width="3"/>
<text x="348" y="142" text-anchor="end" font-size="11" fill="#0f6e56" font-weight="500">v3</text>
<rect x="355" y="295" width="136" height="54" rx="6" fill="none" stroke="#0f6e56" stroke-width="3"/>
<text x="486" y="310" text-anchor="end" font-size="11" fill="#0f6e56" font-weight="500">v4</text>
<rect x="78" y="355" width="14" height="14" rx="3" fill="none" stroke="#0f6e56" stroke-width="3"/>
<text x="98" y="366" font-size="12" fill="var(--text-secondary)">validated — passed the fresh-ticker holdout (the two worth trading)</text>
<text x="78" y="388" font-size="11" fill="var(--text-muted)">Tried to beat these and failed: two-sided (overfit, failed holdout), dynamic trailing exit (worse), options (lose to the tax).</text>
</svg>