<svg viewBox="0 0 720 452" xmlns="http://www.w3.org/2000/svg" role="img" aria-label="NVDA 15-minute candles June 9. Bought 209.12, ran to the 4-to-1 target 211.09 by 13:30 for +28.12, then NVDA reversed and fell after the exit.">
<title>NVDA v4 trade — bought 209.12, sold at 4:1 target 211.09</title>
<line x1="52" y1="374.0" x2="706" y2="374.0" stroke="var(--border)" stroke-width="1"/>
<text x="46" y="378.0" text-anchor="end" font-size="11" fill="var(--text-muted)">206</text>
<line x1="52" y1="314.0" x2="706" y2="314.0" stroke="var(--border)" stroke-width="1"/>
<text x="46" y="318.0" text-anchor="end" font-size="11" fill="var(--text-muted)">207</text>
<line x1="52" y1="254.0" x2="706" y2="254.0" stroke="var(--border)" stroke-width="1"/>
<text x="46" y="258.0" text-anchor="end" font-size="11" fill="var(--text-muted)">208</text>
<line x1="52" y1="194.0" x2="706" y2="194.0" stroke="var(--border)" stroke-width="1"/>
<text x="46" y="198.0" text-anchor="end" font-size="11" fill="var(--text-muted)">209</text>
<line x1="52" y1="134.0" x2="706" y2="134.0" stroke="var(--border)" stroke-width="1"/>
<text x="46" y="138.0" text-anchor="end" font-size="11" fill="var(--text-muted)">210</text>
<line x1="52" y1="74.0" x2="706" y2="74.0" stroke="var(--border)" stroke-width="1"/>
<text x="46" y="78.0" text-anchor="end" font-size="11" fill="var(--text-muted)">211</text>
<text x="360" y="438" text-anchor="middle" font-size="12" fill="var(--text-secondary)">Tue Jun 9 (UTC, 15-min candles)</text>
<line x1="72.4" y1="140.0" x2="72.4" y2="158.6" stroke="#e34948" stroke-width="1.3"/>
<rect x="62.2" y="142.4" width="20.4" height="8.4" fill="#e34948"/>
<line x1="113.3" y1="137.0" x2="113.3" y2="158.0" stroke="#1baf7a" stroke-width="1.3"/>
<rect x="103.1" y="140.6" width="20.4" height="15.0" fill="#1baf7a"/>
<line x1="154.2" y1="126.8" x2="154.2" y2="159.2" stroke="#e34948" stroke-width="1.3"/>
<rect x="144.0" y="141.2" width="20.4" height="9.6" fill="#e34948"/>
<line x1="195.1" y1="149.0" x2="195.1" y2="170.6" stroke="#e34948" stroke-width="1.3"/>
<rect x="184.8" y="149.6" width="20.4" height="13.8" fill="#e34948"/>
<line x1="235.9" y1="158.6" x2="235.9" y2="189.2" stroke="#e34948" stroke-width="1.3"/>
<rect x="225.7" y="161.6" width="20.4" height="2.4" fill="#e34948"/>
<line x1="276.8" y1="158.0" x2="276.8" y2="183.8" stroke="#e34948" stroke-width="1.3"/>
<rect x="266.6" y="161.0" width="20.4" height="19.8" fill="#e34948"/>
<line x1="317.7" y1="173.6" x2="317.7" y2="188.0" stroke="#e34948" stroke-width="1.3"/>
<rect x="307.5" y="182.0" width="20.4" height="4.8" fill="#e34948"/>
<line x1="358.6" y1="182.6" x2="358.6" y2="207.2" stroke="#e34948" stroke-width="1.3"/>
<rect x="348.3" y="187.4" width="20.4" height="7.8" fill="#e34948"/>
<line x1="399.4" y1="168.2" x2="399.4" y2="195.8" stroke="#1baf7a" stroke-width="1.3"/>
<rect x="389.2" y="179.6" width="20.4" height="16.2" fill="#1baf7a"/>
<line x1="440.3" y1="161.0" x2="440.3" y2="189.2" stroke="#1baf7a" stroke-width="1.3"/>
<rect x="430.1" y="161.6" width="20.4" height="14.4" fill="#1baf7a"/>
<line x1="481.2" y1="143.0" x2="481.2" y2="215.6" stroke="#e34948" stroke-width="1.3"/>
<rect x="471.0" y="161.6" width="20.4" height="2.4" fill="#e34948"/>
<line x1="522.1" y1="86.0" x2="522.1" y2="176.0" stroke="#1baf7a" stroke-width="1.3"/>
<rect x="511.8" y="94.4" width="20.4" height="67.8" fill="#1baf7a"/>
<line x1="562.9" y1="50.0" x2="562.9" y2="204.2" stroke="#e34948" stroke-width="1.3"/>
<rect x="552.7" y="96.8" width="20.4" height="27.6" fill="#e34948"/>
<line x1="603.8" y1="76.4" x2="603.8" y2="192.2" stroke="#e34948" stroke-width="1.3"/>
<rect x="593.6" y="125.0" width="20.4" height="59.4" fill="#e34948"/>
<line x1="644.7" y1="182.6" x2="644.7" y2="326.0" stroke="#e34948" stroke-width="1.3"/>
<rect x="634.5" y="187.4" width="20.4" height="131.4" fill="#e34948"/>
<line x1="685.6" y1="292.4" x2="685.6" y2="380.6" stroke="#1baf7a" stroke-width="1.3"/>
<rect x="675.3" y="315.2" width="20.4" height="4.2" fill="#1baf7a"/>
<line x1="297.2" y1="68.6" x2="583.4" y2="68.6" stroke="#1baf7a" stroke-width="1.5" stroke-dasharray="5 3"/>
<text x="587.4" y="72.6" font-size="11" fill="#1baf7a">target 211.09 (4x risk)</text>
<line x1="297.2" y1="216.2" x2="583.4" y2="216.2" stroke="#e34948" stroke-width="1.5" stroke-dasharray="5 3"/>
<text x="587.4" y="220.2" font-size="11" fill="#e34948">stop 208.63</text>
<circle cx="317.7" cy="186.8" r="6" fill="#2a78d6"/>
<text x="317.7" y="206.8" text-anchor="middle" font-size="11" fill="#2a78d6" font-weight="500">BUY 209.12</text>
<circle cx="562.9" cy="68.6" r="6" fill="#1baf7a"/>
<text x="562.9" y="57.6" text-anchor="middle" font-size="11" fill="#1baf7a" font-weight="500">SOLD +$28.12</text>
<text x="644.7" y="272.0" text-anchor="middle" font-size="11" fill="var(--text-muted)">reversed after</text>
<text x="644.7" y="285.0" text-anchor="middle" font-size="11" fill="var(--text-muted)">we were out</text>
<rect x="58" y="286" width="290" height="86" rx="8" fill="var(--surface-2)" stroke="var(--border)" stroke-width="1"/>
<text x="70" y="308" font-size="12" fill="var(--text-primary)" font-weight="500">NVDA  —  v4 (15-min, 4:1)</text>
<text x="70" y="327" font-size="12" fill="var(--text-secondary)" font-weight="400">bought 14.3 shares = $2,990  (30% of acct)</text>
<text x="70" y="346" font-size="12" fill="var(--text-secondary)" font-weight="400">risk if stopped: -$7.03   reward at target: +$28.12</text>
<text x="70" y="365" font-size="12" fill="#1baf7a" font-weight="500">result: 4:1 TARGET HIT  ->  +$28.12</text>
</svg>